#!OML:ASF F:\VICON\USERDATA\INSTALL\rory3\rory3.ASF
:FULLY-SPECIFIED
:DEGREES
1
root 0.4106949005797587 18.04929144182273 -29.32588342030624 -3.4547743002045532 -0.9963814379285295 -0.7637817080661746
lfemur -12.478696827073463 0.0032352868424090353 -23.03199404656165
ltibia 22.999205702070128
lfoot -4.779722373876774 -3.876818516678318
ltoes -28.35927524432887
rfemur -13.58720026676369 -1.3730591646877213 22.791406710325003
rtibia 71.87848208301219
rfoot 4.3704455736349646 -6.678694587507342
rtoes 2.504479665859611
lowerback 12.601282477138012 1.006064686039752 -0.4383808591532141
upperback 0.7028423401791635 1.3257565204387196 0.7980880119690846
thorax -6.3613658716313495 0.6727129542223973 0.8514609681411117
lowerneck -16.814296237092297 -3.4824883805192774 -1.8858114984524055
upperneck 21.469499463295364 -4.571050461452226 0.9233516935232259
head 9.637298477669447 -2.1713785893169333 0.032206475660020606
lclavicle 2.991114300670355e-16 5.5314556217691565e-17
lhumerus -32.449896366132066 9.248400814600458 80.3469023501031
lradius 21.32820866250724
lwrist 5.319765684561898
lhand -25.30922157335709 20.927396094364873
lfingers 7.125020000000001
lthumb 1.2129285022468732 50.90369608595914
rclavicle 2.991114300670355e-16 5.5314556217691565e-17
rhumerus -25.990407371065487 -20.085800217319054 -79.5671933561606
rradius 25.467605624125344
rwrist 5.997784273858909
rhand -18.413796529172256 23.151897417682243
rfingers 7.125020000000001
rthumb 7.8710134476227935 -6.681582512182958
2
root 0.45297959545550287 18.066590397693112 -28.70088354325253 -3.820151693502602 -0.558180041726104 -0.6461969876726674
lfemur -10.21589825202487 -0.2102586516691889 -23.450293370115247
ltibia 23.78730464923037
lfoot -6.736460277069848 -2.5556006057427565
ltoes -27.294976712277872
rfemur -18.143097005788366 -2.180716613559814 22.71420680620785
rtibia 74.2483817212607
rfoot -0.038769846926416385 -8.659289228695476
rtoes -1.2459154755788675
lowerback 13.107376862403706 0.8303078588554436 -0.596798472947287
upperback 0.6256542188090741 1.062757638335973 0.7098521691052064
thorax -6.722718633908834 0.5483451122943882 0.8888208137293576
lowerneck -16.511499989987886 -3.351921576298978 -1.622226195866089
upperneck 21.83329500334864 -4.484651618795889 0.963264288988062
head 9.702216521220185 -2.105111097297883 0.01615224764135298
lclavicle 2.991114041799812e-16 5.531456036010215e-17
lhumerus -30.86219902027793 7.961923014577977 80.09900346665611
lradius 21.325008535149514
lwrist 5.289695710683791
lhand -24.995423135049307 17.99660182117559
lfingers 7.125020000000001
lthumb 1.51601679656482 47.97090172828508
rclavicle 2.991114041799812e-16 5.531456036010215e-17
rhumerus -28.093104051383985 -22.805195543850008 -78.39339627080032
rradius 24.668707472836424
rwrist 6.180043860257116
rhand -14.878224374204557 14.73413244734948
rfingers 7.125020000000001
rthumb 11.28217552554007 -14.942468387431717
3
root 0.48834849362073185 18.058990857305186 -28.060384592264114 -3.8760313726053512 0.5550669365805698 -0.47670852386131557
lfemur -7.982229823703446 -0.6808675195983851 -23.91259247140006
ltibia 24.122904936732517
lfoot -8.79360805049362 -1.6962219743954923
ltoes -26.236578430658426
rfemur -22.36649370887954 -3.29670295125271 22.68110685632771
rtibia 73.99148187390202
rfoot -3.0387256424287514 -7.622962039679282
rtoes 1.7794006290730235
lowerback 12.950578602553048 0.31431929203157494 -1.120815126021214
upperback 0.38394419028130383 0.3204226959316885 0.9711037180243218
thorax -6.8806554611802575 0.20934127742596487 1.6009691128004269
lowerneck -15.377014015166258 -3.18747561027987 -1.9320206774493913
upperneck 21.985093103135487 -4.163305898714963 0.8274256637266656
head 9.54344131149933 -2.0052448807854066 0.08080085475557044
lclavicle 2.991114011393849e-16 5.5314577620129354e-17
lhumerus -30.045300440266328 6.699665049452976 80.53450153180164
lradius 22.576506169612273
lwrist 6.048003704922444
lhand -25.057222981561516 23.200791538368215
lfingers 7.125020000000001
lthumb 1.4563169427040865 53.17549161765152
rclavicle 2.991114011393849e-16 5.5314577620129354e-17
rhumerus -30.29710059287636 -23.063995039328823 -77.36999871869916
rradius 24.19850831321704
rwrist 5.75236489554522
rhand -14.6462261894242 11.707044233160158
rfingers 7.125020000000001
rthumb 11.50597379031088 -17.957156125913237
4
root 0.519201526611071 18.01149370006107 -27.44268447732133 -3.7945519396174117 1.6081731562866404 0.10221098514907156
lfemur -6.311520949209216 -0.8856456160812982 -24.779591074007154
ltibia 24.996504209294017
lfoot -10.808495743505025 -1.3174626485003111
ltoes -21.61858337565821
rfemur -26.12829150152367 -3.8881011932976612 22.186707379332333
rtibia 71.28628224597495
rfoot -7.364810632152582 -7.199993200461539
rtoes -2.681403737684036
lowerback 13.043477517850198 0.0663859453825229 -1.6412337620567452
upperback 0.9487872714586394 -0.09761467615600705 0.8004000217972272
thorax -6.315736787482097 0.00894426395386827 1.790218384770209
lowerneck -17.958082088193574 -3.2471741380662342 -1.4631090335121835
upperneck 22.617985338427438 -4.27589441953478 0.5639662927330772
head 10.237280363793673 -2.0266240706186704 -0.1545664406454249
lclavicle 2.9911142035643663e-16 5.531454337624617e-17
lhumerus -26.96880570681169 4.225909326834648 81.07289917691088
lradius 23.3776046174154
lwrist 8.1730677760489
lhand -25.13182242785964 18.646000531376338
lfingers 7.125020000000001
lthumb 1.3842276714134938 48.621300489769716
rclavicle 2.9911142035643663e-16 5.531454337624617e-17
rhumerus -30.61630007600396 -24.167793096016766 -77.3257988551384
rradius 24.362508084579446
rwrist 6.212743652989533
rhand -17.147906571893525 23.441996222266415
rfingers 7.125020000000001
rthumb 9.092643444805393 -6.342013874656032
5
root 0.5456637139911693 17.93369836880913 -26.818785291531185 -3.568393517873711 2.187751043356693 0.28861530350090847
lfemur -4.7986620268274125 -1.027254949106583 -25.162690725343495
ltibia 26.019303748855762
lfoot -13.174793057733499 -0.5318998618181028
ltoes -21.827984039822688
rfemur -29.211188465499028 -3.9484911247424117 22.192107627735695
rtibia 66.06308437966675
rfoot -9.718637867014294 -7.279433024365132
rtoes -2.1207941981641323
lowerback 13.387873764440055 -0.29664564029447116 -2.0347828556247443
upperback 0.6922556168584542 -0.6284803696145804 1.0282400290497358
thorax -6.751468050586714 -0.2275266479889124 2.358956212535431
lowerneck -17.848783385712363 -3.0354393170190077 -1.6232861852689675
upperneck 22.3034891582552 -3.8701298397476265 0.33621968143895486
head 10.097684565162748 -1.8838794723740615 -0.146434684384813
lclavicle 2.991114242742656e-16 5.531453923379905e-17
lhumerus -25.951907354879342 3.227161025857405 81.21789854841695
lradius 25.10760115903333
lwrist 8.454436993489796
lhand -27.4978104817171 18.78920024900143
lfingers 7.125020000000001
lthumb -0.9009335039691067 48.76710019848129
rclavicle 2.991114242742656e-16 5.531453923379905e-17
rhumerus -31.969097939385033 -23.37119457641234 -76.90469987565696
rradius 24.291408134198527
rwrist 5.88075448730512
rhand -16.64081055099497 21.834202837531233
rfingers 7.125020000000001
rthumb 9.581929445544926 -7.9279373144419525
